<svg width="62" height="96" viewBox="0 0 62 96" fill="none" xmlns="http://www.w3.org/2000/svg">
<path fill-rule="evenodd" clip-rule="evenodd" d="M27.6659 73.1817C30.51 81.0536 34.2865 88.4744 38.8605 95.3085C15.1979 76.5734 0 47.4755 0 14.7998C0 14.4153 0.0188991 13.5576 0.196971 12.8428C0.115567 13.4858 0.144642 14.1076 0.285646 14.7426C1.44421 19.9164 9.99022 24.1988 21.4944 25.75C21.1644 29.1579 20.9907 32.6105 20.9907 36.1049C20.9907 49.1564 23.3551 61.6491 27.6659 73.1817Z" fill="#D0A8A1"/>
<path fill-rule="evenodd" clip-rule="evenodd" d="M49.9436 23.9153L49.9254 23.6729C44.6995 25.3625 38.1312 26.3689 30.9989 26.3689C27.6816 26.3689 24.4872 26.1506 21.4934 25.7478C21.1635 29.1549 20.9897 32.6075 20.9897 36.1011C20.9897 48.6063 23.1608 60.5988 27.1351 71.7255C38.8442 58.5781 46.9636 42.1208 49.9436 23.9153Z" fill="#8F0E28"/>
<path fill-rule="evenodd" clip-rule="evenodd" d="M27.0118 0.808594C24.2142 8.72814 22.3332 17.0857 21.4937 25.7508C9.09772 24.0846 0.132324 19.247 0.132324 13.5371C0.132324 7.00918 11.8473 1.62157 27.0118 0.808594Z" fill="#E0D6C2"/>
<path fill-rule="evenodd" clip-rule="evenodd" d="M27.4023 71.4269C39.0265 58.267 47.0688 41.8258 49.9906 23.6532C51.0445 17.0974 51.4138 10.4303 51.1005 3.79688C57.6892 6.15084 61.8626 9.63931 61.8626 13.5357L61.9033 15.0467C61.9033 39.7026 47.8625 61.0516 27.4023 71.4269Z" fill="#E0D6C2"/>
</svg>
