<svg width="382" height="222" viewBox="0 0 382 222" fill="none" xmlns="http://www.w3.org/2000/svg">
<path fill-rule="evenodd" clip-rule="evenodd" d="M65.0027 169.928C71.6138 188.326 80.3925 205.669 91.0245 221.64C36.0209 177.855 0.693359 109.851 0.693359 33.4852C0.693359 32.5866 0.73729 30.5822 1.15122 28.9116C0.961995 30.4144 1.02958 31.8677 1.35734 33.3517C4.05042 45.4432 23.9156 55.4515 50.6571 59.0768C49.8901 67.0414 49.4863 75.1103 49.4863 83.2769C49.4863 113.779 54.9823 142.976 65.0027 169.928Z" fill="#D0A8A1"/>
<path fill-rule="evenodd" clip-rule="evenodd" d="M116.79 54.7906L116.747 54.2241C104.6 58.173 89.3316 60.5248 72.7525 60.5248C65.0416 60.5248 57.6162 60.0147 50.6572 59.0733C49.8901 67.0361 49.4863 75.1051 49.4863 83.2699C49.4863 112.495 54.5329 140.523 63.7711 166.527C90.9891 135.8 109.863 97.3384 116.79 54.7906Z" fill="#8F0E28"/>
<path fill-rule="evenodd" clip-rule="evenodd" d="M63.4852 0.78656C56.9823 19.2952 52.6099 38.8274 50.6585 59.0785C21.844 55.1844 1.00391 43.8786 1.00391 30.5342C1.00391 15.2778 28.2354 2.68655 63.4852 0.78656Z" fill="#E0D6C2"/>
<path fill-rule="evenodd" clip-rule="evenodd" d="M64.3906 165.828C91.4109 135.072 110.105 96.6475 116.897 54.1768C119.347 38.8554 120.205 23.2738 119.477 7.77094C134.792 13.2723 144.494 21.4252 144.494 30.5314L144.588 34.0626C144.588 91.6853 111.95 141.58 64.3906 165.828Z" fill="#E0D6C2"/>
<path d="M183.969 113.403C184.71 113.403 185.537 113.353 186.451 113.24C187.366 113.139 188.255 113.014 189.122 112.852C189.985 112.703 190.786 112.513 191.529 112.302C192.271 112.09 192.839 111.89 193.232 111.674V122.487H191.306V120.537C191.306 119.536 190.973 118.684 190.306 117.983C189.625 117.282 188.801 116.907 187.811 116.857H174.556V160.11C174.656 161.211 175.075 162.149 175.817 162.924C176.559 163.703 177.496 164.09 178.632 164.09H180.188V166.043H163.141V164.09H164.698C165.737 164.09 166.636 163.713 167.403 162.962C168.172 162.212 168.579 161.286 168.626 160.185V116.857H155.446C154.46 116.907 153.63 117.282 152.949 117.983C152.285 118.684 151.949 119.536 151.949 120.537V122.487H150.021V111.674C150.468 111.89 151.061 112.09 151.801 112.302C152.542 112.513 153.346 112.703 154.21 112.852C155.075 113.014 155.963 113.139 156.877 113.24C157.795 113.353 158.619 113.403 159.363 113.403H183.969ZM381.921 112.427V114.379H379.995C379.005 114.379 378.14 114.753 377.4 115.503C376.66 116.256 376.263 117.133 376.216 118.132V156.129C376.216 157.281 376.251 158.445 376.326 159.622C376.398 160.798 376.486 161.861 376.584 162.811C376.684 163.915 376.806 164.99 376.956 166.043H375.324L336.71 124.289V159.21C336.808 160.259 337.215 161.159 337.932 161.911C338.648 162.664 339.527 163.037 340.564 163.037H342.49V164.99H326.332V163.037H328.259C329.298 163.037 330.187 162.664 330.929 161.911C331.669 161.159 332.064 160.233 332.113 159.133V120.986C332.113 119.733 332.076 118.521 332.003 117.345C331.931 116.169 331.843 115.128 331.745 114.228L331.373 111.224H333.078L371.693 152.974V118.132C371.595 117.081 371.186 116.179 370.47 115.43C369.752 114.678 368.853 114.303 367.765 114.303H365.839V112.35L381.921 112.427ZM300.96 112.35C304.912 112.35 308.507 113.002 311.77 114.303C315.017 115.604 317.822 117.458 320.17 119.861C322.515 122.263 324.331 125.142 325.642 128.495C326.952 131.85 327.605 135.581 327.605 139.686C327.605 143.791 326.952 147.519 325.642 150.874C324.331 154.227 322.515 157.106 320.17 159.509C317.822 161.912 315.017 163.765 311.77 165.065C308.507 166.368 304.912 167.017 300.96 167.017C297.005 167.017 293.413 166.368 290.149 165.065C286.902 163.765 284.097 161.912 281.751 159.509C279.404 157.106 277.588 154.227 276.28 150.874C274.969 147.519 274.313 143.791 274.313 139.686C274.313 135.581 274.969 131.85 276.28 128.495C277.588 125.142 279.404 122.263 281.751 119.861C284.097 117.458 286.902 115.604 290.149 114.303C293.413 113.002 297.005 112.35 300.96 112.35ZM300.997 163.564C304.012 163.564 306.742 162.989 309.188 161.835C311.635 160.685 313.721 159.069 315.451 156.993C317.18 154.915 318.524 152.413 319.491 149.486C320.454 146.557 320.934 143.289 320.934 139.686C320.934 136.081 320.454 132.815 319.491 129.883C318.524 126.956 317.18 124.454 315.451 122.377C313.721 120.299 311.635 118.684 309.188 117.533C306.742 116.381 304.012 115.806 300.997 115.806C298.032 115.806 295.326 116.381 292.881 117.533C290.435 118.684 288.335 120.299 286.581 122.377C284.825 124.454 283.479 126.956 282.543 129.883C281.604 132.815 281.134 136.081 281.134 139.686C281.134 143.289 281.604 146.557 282.543 149.486C283.479 152.413 284.825 154.915 286.581 156.993C288.335 159.069 290.435 160.685 292.881 161.835C295.326 162.989 298.032 163.564 300.997 163.564ZM254.604 113.554C259.186 113.554 262.779 114.829 265.4 117.383C268.006 119.936 269.314 123.464 269.314 127.969C269.314 129.673 269.03 131.336 268.463 132.963C267.893 134.59 267.118 136.069 266.14 137.394C265.155 138.721 263.979 139.833 262.62 140.735C261.274 141.637 259.806 142.213 258.223 142.462C258.927 143.015 259.62 143.69 260.284 144.491C260.963 145.29 261.583 146.042 262.125 146.743C263.262 148.445 264.398 150.073 265.535 151.623C266.476 152.924 267.461 154.253 268.5 155.603C269.537 156.957 270.404 158.006 271.093 158.758C272.528 160.36 273.974 161.649 275.43 162.625C276.888 163.602 278.777 164.09 281.098 164.09V166.043H276.506C274.775 166.043 273.232 165.829 271.872 165.403C270.514 164.978 269.302 164.441 268.241 163.79C267.179 163.138 266.265 162.424 265.498 161.649C264.732 160.873 264.051 160.11 263.462 159.359C263.362 159.21 263.141 158.895 262.794 158.419C262.446 157.945 262.039 157.356 261.569 156.656C261.101 155.954 260.583 155.191 260.013 154.366C259.444 153.539 258.865 152.7 258.27 151.849C257.185 150.348 256.074 148.784 254.936 147.156C253.799 145.528 253.021 144.427 252.603 143.852C252.181 143.277 251.737 142.762 251.269 142.312C250.799 141.862 250.278 141.499 249.711 141.225C249.143 140.949 247.871 140.812 245.894 140.812V160.033C245.994 161.134 246.415 162.073 247.155 162.852C247.896 163.628 248.834 164.014 249.971 164.014H251.527V165.966H237.063H234.48H219.499V164.014H220.759C221.4 164.014 221.969 163.814 222.462 163.412C222.956 163.011 223.204 162.414 223.204 161.611C223.204 161.159 223.13 160.711 222.981 160.259L218.46 148.169H199.857L195.114 160.334V160.259C194.964 160.808 194.89 161.26 194.89 161.611C194.89 162.414 195.148 163.025 195.667 163.45C196.186 163.876 196.768 164.09 197.41 164.09H198.669V166.043H182.884V164.09H184.143C185.133 164.09 186.17 163.765 187.258 163.112C188.343 162.462 189.233 161.385 189.924 159.882H189.852L206.306 120.46C206.799 119.358 207.243 118.309 207.64 117.307C207.983 116.457 208.293 115.579 208.565 114.678C208.837 113.778 208.972 113.052 208.972 112.503H210.604L230.023 159.809V159.734C230.714 161.286 231.603 162.387 232.689 163.037C233.777 163.688 234.814 164.014 235.803 164.014H236.141C237.23 163.991 238.133 163.604 238.852 162.852C239.596 162.073 240.013 161.134 240.113 160.033V119.336C240.013 118.233 239.596 117.282 238.852 116.482C238.112 115.679 237.173 115.279 236.036 115.279H234.48V113.328L254.604 113.554ZM250.044 138.933C250.49 138.933 250.981 138.907 251.527 138.858C252.416 138.858 253.379 138.77 254.418 138.596C255.455 138.421 256.482 138.082 257.494 137.582C258.506 137.083 259.434 136.369 260.274 135.441C261.113 134.517 261.781 133.277 262.274 131.725C262.521 130.825 262.644 129.649 262.644 128.195V127.519C262.548 124.366 261.767 121.862 260.309 120.012C258.853 118.158 256.863 117.157 254.342 117.008C253.502 116.956 252.676 116.92 251.86 116.895C251.046 116.869 250.268 116.857 249.525 116.857C248.834 116.857 248.217 116.869 247.673 116.895C247.129 116.92 246.661 116.932 246.266 116.932H245.894V138.933H250.044ZM217.2 144.715L209.343 123.54L201.116 144.715H217.2Z" fill="#24000D"/>
<path d="M301.377 186.597H305.317C305.624 186.597 305.851 186.677 305.997 186.837C306.144 186.997 306.217 187.21 306.217 187.477V187.797C306.217 187.943 306.144 188.017 305.997 188.017H300.017C299.911 188.017 299.857 187.957 299.857 187.837V177.077C299.857 176.957 299.911 176.897 300.017 176.897H305.137C305.737 176.897 306.037 177.183 306.037 177.757V178.097C306.037 178.243 305.964 178.317 305.817 178.317H301.377V181.777H304.777C305.364 181.777 305.657 182.07 305.657 182.657V182.977C305.657 183.11 305.584 183.177 305.437 183.177H301.377V186.597ZM308.64 185.557C308.64 185.29 308.726 185.157 308.9 185.157C308.993 185.157 309.08 185.203 309.16 185.297C309.56 185.777 310.013 186.157 310.52 186.437C311.04 186.703 311.666 186.837 312.4 186.837C313.226 186.837 313.866 186.677 314.32 186.357C314.773 186.023 315 185.577 315 185.017C315 184.617 314.853 184.297 314.56 184.057C314.266 183.803 313.893 183.59 313.44 183.417C312.986 183.243 312.5 183.07 311.98 182.897C311.46 182.723 310.973 182.517 310.52 182.277C310.066 182.023 309.693 181.697 309.4 181.297C309.106 180.897 308.96 180.377 308.96 179.737C308.96 179.11 309.12 178.57 309.44 178.117C309.773 177.663 310.22 177.317 310.78 177.077C311.34 176.823 311.98 176.697 312.7 176.697C313.246 176.697 313.74 176.743 314.18 176.837C314.633 176.93 315.046 177.063 315.42 177.237C316.086 177.477 316.34 177.877 316.18 178.437L316.08 178.837C316.053 178.97 316 179.037 315.92 179.037C315.866 179.037 315.766 178.997 315.62 178.917C315.206 178.65 314.746 178.443 314.24 178.297C313.746 178.137 313.226 178.057 312.68 178.057C312.053 178.057 311.533 178.197 311.12 178.477C310.706 178.757 310.5 179.15 310.5 179.657C310.5 180.07 310.646 180.403 310.94 180.657C311.233 180.91 311.606 181.123 312.06 181.297C312.513 181.457 313 181.623 313.52 181.797C314.04 181.97 314.526 182.177 314.98 182.417C315.433 182.643 315.806 182.95 316.1 183.337C316.393 183.723 316.54 184.223 316.54 184.837C316.54 185.85 316.186 186.67 315.48 187.297C314.786 187.923 313.813 188.237 312.56 188.237C311.653 188.237 310.906 188.09 310.32 187.797C309.746 187.503 309.32 187.15 309.04 186.737C308.773 186.31 308.64 185.917 308.64 185.557ZM321.927 178.317H318.907C318.801 178.317 318.747 178.257 318.747 178.137V177.077C318.747 176.957 318.801 176.897 318.907 176.897H325.767C326.381 176.897 326.687 177.183 326.687 177.757V178.097C326.687 178.243 326.614 178.317 326.467 178.317H323.427V187.837C323.427 187.957 323.381 188.017 323.287 188.017H322.107C321.987 188.017 321.927 187.957 321.927 187.837V178.317ZM329.65 186.037C329.957 186.037 330.21 186.143 330.41 186.357C330.623 186.57 330.73 186.83 330.73 187.137C330.73 187.43 330.623 187.69 330.41 187.917C330.21 188.13 329.957 188.237 329.65 188.237C329.357 188.237 329.103 188.13 328.89 187.917C328.677 187.69 328.57 187.43 328.57 187.137C328.57 186.83 328.677 186.57 328.89 186.357C329.103 186.143 329.357 186.037 329.65 186.037ZM340.528 186.637V178.337L338.568 179.077C338.448 179.13 338.388 179.09 338.388 178.957V177.797C338.388 177.65 338.454 177.557 338.588 177.517L339.808 177.077C340.154 176.957 340.481 176.897 340.788 176.897H341.048C341.701 176.897 342.028 177.263 342.028 177.997V186.637H343.348C343.948 186.637 344.248 186.923 344.248 187.497V187.797C344.248 187.943 344.174 188.017 344.028 188.017H338.528C338.421 188.017 338.368 187.957 338.368 187.837V186.797C338.368 186.69 338.421 186.637 338.528 186.637H340.528ZM351.286 183.837C351.113 183.93 350.926 184.003 350.726 184.057C350.526 184.11 350.293 184.137 350.026 184.137C349.346 184.137 348.739 183.983 348.206 183.677C347.673 183.357 347.253 182.93 346.946 182.397C346.653 181.85 346.506 181.243 346.506 180.577C346.506 179.763 346.673 179.07 347.006 178.497C347.353 177.91 347.819 177.463 348.406 177.157C349.006 176.837 349.673 176.677 350.406 176.677C351.153 176.677 351.813 176.837 352.386 177.157C352.959 177.463 353.406 177.897 353.726 178.457C354.059 179.003 354.226 179.643 354.226 180.377C354.226 180.99 354.106 181.577 353.866 182.137C353.626 182.683 353.306 183.283 352.906 183.937L350.446 187.997C350.353 188.143 350.246 188.217 350.126 188.217C349.753 188.217 349.519 188.037 349.426 187.677C349.333 187.303 349.413 186.903 349.666 186.477L351.286 183.837ZM350.346 182.797C351.053 182.797 351.626 182.577 352.066 182.137C352.506 181.697 352.726 181.13 352.726 180.437C352.726 179.73 352.519 179.157 352.106 178.717C351.693 178.277 351.113 178.057 350.366 178.057C349.659 178.057 349.086 178.283 348.646 178.737C348.219 179.177 348.006 179.743 348.006 180.437C348.006 181.157 348.213 181.73 348.626 182.157C349.039 182.583 349.613 182.797 350.346 182.797ZM361.484 188.217C360.164 188.217 359.15 187.73 358.444 186.757C357.75 185.783 357.404 184.35 357.404 182.457C357.404 180.577 357.757 179.143 358.464 178.157C359.184 177.17 360.19 176.677 361.484 176.677C362.764 176.677 363.757 177.17 364.464 178.157C365.184 179.143 365.544 180.577 365.544 182.457C365.544 184.35 365.19 185.783 364.484 186.757C363.79 187.73 362.79 188.217 361.484 188.217ZM361.484 186.797C362.004 186.797 362.45 186.663 362.824 186.397C363.197 186.13 363.484 185.683 363.684 185.057C363.897 184.417 364.004 183.55 364.004 182.457C364.004 181.363 363.897 180.503 363.684 179.877C363.484 179.237 363.197 178.783 362.824 178.517C362.45 178.237 362.004 178.097 361.484 178.097C360.964 178.097 360.51 178.237 360.124 178.517C359.75 178.783 359.457 179.237 359.244 179.877C359.044 180.503 358.944 181.363 358.944 182.457C358.944 183.55 359.044 184.417 359.244 185.057C359.457 185.683 359.75 186.13 360.124 186.397C360.51 186.663 360.964 186.797 361.484 186.797ZM372.923 188.217C371.603 188.217 370.589 187.73 369.883 186.757C369.189 185.783 368.843 184.35 368.843 182.457C368.843 180.577 369.196 179.143 369.903 178.157C370.623 177.17 371.629 176.677 372.923 176.677C374.203 176.677 375.196 177.17 375.903 178.157C376.623 179.143 376.983 180.577 376.983 182.457C376.983 184.35 376.629 185.783 375.923 186.757C375.229 187.73 374.229 188.217 372.923 188.217ZM372.923 186.797C373.443 186.797 373.889 186.663 374.263 186.397C374.636 186.13 374.923 185.683 375.123 185.057C375.336 184.417 375.443 183.55 375.443 182.457C375.443 181.363 375.336 180.503 375.123 179.877C374.923 179.237 374.636 178.783 374.263 178.517C373.889 178.237 373.443 178.097 372.923 178.097C372.403 178.097 371.949 178.237 371.563 178.517C371.189 178.783 370.896 179.237 370.683 179.877C370.483 180.503 370.383 181.363 370.383 182.457C370.383 183.55 370.483 184.417 370.683 185.057C370.896 185.683 371.189 186.13 371.563 186.397C371.949 186.663 372.403 186.797 372.923 186.797Z" fill="#24000D"/>
</svg>
