<svg width="164" height="75" viewBox="0 0 164 75" fill="none" xmlns="http://www.w3.org/2000/svg">
<path d="M96.9491 38.0461C97.1997 38.0461 97.4788 38.0293 97.7876 37.9912C98.097 37.9571 98.3972 37.9148 98.69 37.8599C98.9817 37.8096 99.2522 37.7454 99.5034 37.6743C99.7539 37.6026 99.9457 37.5349 100.079 37.4621V41.115H99.428V40.4564C99.428 40.1181 99.3156 39.8301 99.0901 39.5936C98.8601 39.3565 98.5816 39.2298 98.2471 39.2131H93.7693V53.8256C93.803 54.1974 93.9446 54.5143 94.1951 54.7762C94.4457 55.0394 94.7625 55.17 95.146 55.17H95.6717V55.8299H89.9126V55.17H90.4388C90.7899 55.17 91.0935 55.0428 91.3526 54.789C91.6123 54.5357 91.7499 54.2228 91.7659 53.851V39.2131H87.3132C86.9799 39.2298 86.6997 39.3565 86.4696 39.5936C86.2453 39.8301 86.1317 40.1181 86.1317 40.4564V41.115H85.4805V37.4621C85.6312 37.5349 85.8315 37.6026 86.0815 37.6743C86.3321 37.7454 86.6038 37.8096 86.8954 37.8599C87.1877 37.9148 87.4879 37.9571 87.7967 37.9912C88.1066 38.0293 88.3852 38.0461 88.6363 38.0461H96.9491ZM163.825 37.7165V38.3757H163.174C162.84 38.3757 162.548 38.5024 162.298 38.7557C162.048 39.0101 161.914 39.3062 161.898 39.6439V52.4805C161.898 52.8697 161.91 53.2629 161.935 53.6607C161.959 54.058 161.989 54.4171 162.022 54.7381C162.056 55.1111 162.097 55.4742 162.148 55.8299H161.596L148.551 41.724V53.5214C148.584 53.8759 148.722 54.18 148.964 54.4339C149.206 54.6883 149.502 54.8144 149.853 54.8144H150.504V55.4742H145.045V54.8144H145.696C146.047 54.8144 146.347 54.6883 146.598 54.4339C146.848 54.18 146.981 53.8672 146.998 53.4954V40.6079C146.998 40.1846 146.985 39.7752 146.961 39.3779C146.936 38.9806 146.907 38.629 146.873 38.3248L146.748 37.31H147.324L160.37 51.4147V39.6439C160.336 39.2888 160.198 38.9841 159.956 38.7308C159.714 38.4769 159.41 38.3503 159.042 38.3503H158.392V37.6905L163.825 37.7165ZM136.473 37.6905C137.808 37.6905 139.023 37.9108 140.125 38.3503C141.222 38.7898 142.17 39.416 142.963 40.228C143.755 41.0393 144.369 42.0119 144.812 43.1448C145.254 44.2782 145.475 45.5388 145.475 46.9256C145.475 48.3123 145.254 49.5718 144.812 50.7052C144.369 51.838 143.755 52.8107 142.963 53.6226C142.17 54.4345 141.222 55.0602 140.125 55.4997C139.023 55.9397 137.808 56.1589 136.473 56.1589C135.137 56.1589 133.924 55.9397 132.821 55.4997C131.724 55.0602 130.776 54.4345 129.984 53.6226C129.191 52.8107 128.577 51.838 128.135 50.7052C127.692 49.5718 127.471 48.3123 127.471 46.9256C127.471 45.5388 127.692 44.2782 128.135 43.1448C128.577 42.0119 129.191 41.0393 129.984 40.228C130.776 39.416 131.724 38.7898 132.821 38.3503C133.924 37.9108 135.137 37.6905 136.473 37.6905ZM136.486 54.9925C137.504 54.9925 138.427 54.7982 139.253 54.4085C140.079 54.0199 140.784 53.474 141.369 52.7725C141.953 52.0705 142.407 51.225 142.734 50.2362C143.059 49.2468 143.221 48.1428 143.221 46.9256C143.221 45.7077 143.059 44.6044 142.734 43.6138C142.407 42.6249 141.953 41.7795 141.369 41.078C140.784 40.376 140.079 39.8301 139.253 39.4415C138.427 39.0523 137.504 38.858 136.486 38.858C135.484 38.858 134.57 39.0523 133.744 39.4415C132.917 39.8301 132.208 40.376 131.615 41.078C131.022 41.7795 130.567 42.6249 130.251 43.6138C129.934 44.6044 129.775 45.7077 129.775 46.9256C129.775 48.1428 129.934 49.2468 130.251 50.2362C130.567 51.225 131.022 52.0705 131.615 52.7725C132.208 53.474 132.917 54.0199 133.744 54.4085C134.57 54.7982 135.484 54.9925 136.486 54.9925ZM120.812 38.097C122.36 38.097 123.574 38.5278 124.46 39.3906C125.34 40.2534 125.782 41.4452 125.782 42.9672C125.782 43.5426 125.686 44.1047 125.494 44.6541C125.302 45.204 125.04 45.7037 124.71 46.1512C124.377 46.5994 123.98 46.9753 123.521 47.28C123.066 47.5848 122.57 47.7791 122.035 47.8635C122.273 48.0503 122.507 48.2781 122.731 48.5488C122.961 48.8188 123.17 49.0727 123.353 49.3098C123.738 49.8846 124.121 50.4345 124.505 50.9585C124.823 51.3979 125.156 51.8467 125.507 52.303C125.857 52.7604 126.15 53.1149 126.383 53.3687C126.868 53.91 127.356 54.3454 127.848 54.675C128.341 55.0052 128.979 55.17 129.763 55.17V55.8299H128.212C127.627 55.8299 127.106 55.7576 126.646 55.6136C126.187 55.4702 125.778 55.2886 125.42 55.0688C125.061 54.8485 124.752 54.6074 124.493 54.3454C124.234 54.0835 124.004 53.8256 123.805 53.5717C123.771 53.5214 123.696 53.415 123.579 53.2542C123.462 53.094 123.324 52.8951 123.166 52.6586C123.007 52.4215 122.832 52.1636 122.64 51.8849C122.448 51.6055 122.252 51.3222 122.051 51.0348C121.684 50.5276 121.309 49.9991 120.925 49.4492C120.541 48.8992 120.277 48.5274 120.136 48.3331C119.994 48.1388 119.844 47.9647 119.686 47.8126C119.527 47.6605 119.351 47.5379 119.159 47.4454C118.968 47.3523 118.538 47.3061 117.87 47.3061V53.7995C117.904 54.1714 118.046 54.4888 118.296 54.752C118.546 55.0139 118.863 55.1446 119.247 55.1446H119.773V55.8038H114.886H114.014H108.953V55.1446H109.378C109.595 55.1446 109.787 55.0769 109.954 54.9411C110.12 54.8057 110.204 54.6039 110.204 54.3327C110.204 54.18 110.179 54.0285 110.129 53.8759L108.602 49.7915H102.317L100.715 53.9013V53.8759C100.664 54.0615 100.639 54.2142 100.639 54.3327C100.639 54.6039 100.726 54.8104 100.901 54.9538C101.076 55.0978 101.273 55.17 101.49 55.17H101.915V55.8299H96.5827V55.17H97.0079C97.3424 55.17 97.6929 55.0602 98.0604 54.8399C98.4269 54.6201 98.7277 54.2564 98.9611 53.7486H98.9366L104.495 40.4303C104.662 40.0579 104.812 39.7035 104.946 39.3652C105.062 39.0778 105.167 38.7811 105.259 38.4769C105.35 38.1728 105.396 37.9276 105.396 37.7419H105.947L112.508 53.7238V53.6983C112.741 54.2228 113.042 54.5947 113.409 54.8144C113.776 55.0342 114.127 55.1446 114.461 55.1446H114.575C114.943 55.1365 115.248 55.0058 115.491 54.752C115.742 54.4888 115.883 54.1714 115.917 53.7995V40.0504C115.883 39.678 115.742 39.3565 115.491 39.0864C115.241 38.8152 114.924 38.6799 114.539 38.6799H114.014V38.0207L120.812 38.097ZM119.272 46.6711C119.422 46.6711 119.589 46.6624 119.773 46.6457C120.073 46.6457 120.398 46.6162 120.749 46.5572C121.1 46.4982 121.447 46.3837 121.789 46.2149C122.131 46.046 122.444 45.8049 122.728 45.4914C123.011 45.1792 123.237 44.7605 123.404 44.236C123.487 43.9318 123.529 43.5345 123.529 43.0436V42.8152C123.496 41.75 123.232 40.904 122.74 40.2788C122.248 39.6526 121.575 39.3143 120.724 39.264C120.44 39.2466 120.161 39.2345 119.885 39.2258C119.61 39.2171 119.348 39.2131 119.097 39.2131C118.863 39.2131 118.655 39.2171 118.471 39.2258C118.287 39.2345 118.129 39.2385 117.995 39.2385H117.87V46.6711H119.272ZM108.176 48.6245L105.522 41.4707L102.742 48.6245H108.176Z" fill="#24000D"/>
<path d="M8.72779 38.0818C9.01317 38.0818 9.34594 38.0818 9.71637 38.0627C9.71637 38.246 9.68783 38.4287 9.63076 38.5924C9.45039 38.6311 9.3077 38.7369 9.19354 38.9006C9.08909 39.055 8.94639 39.3725 8.78486 39.8351L7.32081 43.9576C7.19695 44.0056 7.03542 44.0253 6.83565 44.0253C6.55997 43.3799 6.14158 42.4842 5.56167 41.3571L4.82993 39.864L3.14671 43.9675C3.03312 44.0056 2.87102 44.0253 2.64328 44.0253C2.21519 42.8595 1.62558 41.4051 0.865301 39.6714C0.712903 39.3054 0.598747 39.0643 0.532537 38.9393C0.475459 38.8139 0.408678 38.7271 0.342468 38.6889C0.275686 38.6502 0.180366 38.6115 0.0570779 38.6022C0.0188357 38.4576 0 38.2842 0 38.0627C0.428084 38.0818 0.827059 38.0818 1.19807 38.0818C1.54967 38.0818 1.97775 38.0818 2.48175 38.0627C2.48175 38.2552 2.47204 38.4287 2.4338 38.5924C2.19636 38.6022 2.03483 38.6404 1.9298 38.6889C1.82535 38.7369 1.77798 38.8237 1.77798 38.9295C1.77798 39.0452 1.84419 39.2476 1.97775 39.5367C2.09191 39.7964 2.23403 40.1046 2.41497 40.4706C2.76657 41.2224 3.02342 41.7712 3.17524 42.147L4.87731 38.0725C4.98176 38.0338 5.14329 38.0147 5.36247 38.0147C5.524 38.342 5.76145 38.8335 6.08451 39.4881C6.66499 40.6828 7.0925 41.5688 7.35849 42.1661L8.28086 39.816C8.38589 39.517 8.4424 39.2863 8.4424 39.1319C8.4424 38.9683 8.38589 38.8428 8.28086 38.756C8.17641 38.6791 8.01488 38.6213 7.79627 38.5924C7.73919 38.4287 7.71066 38.2552 7.71066 38.0627C8.1005 38.0818 8.43326 38.0818 8.72779 38.0818ZM11.1142 43.9675C11.1142 43.7263 11.133 43.5534 11.1713 43.4378C11.3614 43.4279 11.5041 43.3892 11.5988 43.3412C11.7038 43.3024 11.77 43.2163 11.8083 43.1006C11.8465 42.985 11.8654 42.8017 11.8654 42.5703V39.4401C11.8654 39.2186 11.8465 39.0452 11.8083 38.9295C11.77 38.8139 11.7038 38.7271 11.5988 38.6791C11.5041 38.6311 11.3614 38.6022 11.1713 38.5924C11.133 38.4767 11.1142 38.294 11.1142 38.0627C11.6085 38.0818 12.0366 38.0818 12.407 38.0818C12.7113 38.0818 13.1393 38.0818 13.681 38.0627C13.681 38.3032 13.6622 38.4767 13.6336 38.5924C13.3579 38.6022 13.1679 38.6693 13.0726 38.7757C12.9778 38.8815 12.9299 39.1128 12.9299 39.4401V42.5703C12.9299 42.9075 12.9778 43.1295 13.0726 43.2446C13.1679 43.3603 13.3579 43.4279 13.6336 43.4378C13.6622 43.5534 13.681 43.7362 13.681 43.9675C13.1582 43.9478 12.7307 43.9385 12.407 43.9385C12.0172 43.9385 11.5897 43.9478 11.1142 43.9675ZM21.0492 38.0818C21.3346 38.0818 21.6576 38.0818 22.0189 38.0627C22.0189 38.294 22.0001 38.4767 21.9716 38.5924C21.81 38.6022 21.6862 38.6502 21.6011 38.7179C21.5155 38.7849 21.4584 38.9104 21.4202 39.0741C21.382 39.2476 21.3728 39.4881 21.3728 39.816V43.9576C21.2678 44.0056 21.1063 44.0253 20.8974 44.0253L16.7427 39.3725V42.1852C16.7427 42.5223 16.7615 42.7727 16.8089 42.9462C16.8471 43.1197 16.923 43.2446 17.0184 43.3123C17.1228 43.3799 17.2655 43.4279 17.4556 43.4378C17.5029 43.5627 17.5126 43.7362 17.5126 43.9675C17.104 43.9478 16.7615 43.9385 16.4858 43.9385C16.1245 43.9385 15.7729 43.9478 15.4401 43.9675C15.4401 43.7362 15.459 43.5627 15.4972 43.4378C15.6873 43.4279 15.83 43.3799 15.9247 43.3123C16.0201 43.2446 16.096 43.1197 16.1342 42.9462C16.1816 42.7727 16.2004 42.5223 16.2004 42.1852V38.7659L16.1913 38.756C16.1342 38.6982 16.0674 38.66 15.9818 38.6404C15.8962 38.6213 15.7347 38.6022 15.4972 38.5924C15.459 38.4478 15.4401 38.2749 15.4401 38.0627C15.7158 38.0818 15.9818 38.0818 16.2484 38.0818C16.4858 38.0818 16.7233 38.0818 16.971 38.0627L20.8215 42.4356V39.816C20.8215 39.4881 20.802 39.2476 20.7644 39.0741C20.717 38.9104 20.6502 38.7849 20.5458 38.7179C20.4504 38.6502 20.298 38.6022 20.0988 38.5924C20.0703 38.4096 20.0509 38.2362 20.0509 38.0627C20.4316 38.0818 20.7644 38.0818 21.0492 38.0818ZM28.4939 42.2818C28.7028 42.32 28.874 42.4067 28.9979 42.5322C28.8643 42.9075 28.7599 43.3799 28.6931 43.9576L26.459 43.9385C25.3466 43.9385 24.4533 43.9478 23.7781 43.9675C23.7781 43.7263 23.7969 43.5534 23.8352 43.4378C24.0252 43.4279 24.1679 43.3892 24.2627 43.3412C24.358 43.3024 24.4339 43.2163 24.4722 43.0908C24.5098 42.9653 24.5292 42.7727 24.5292 42.5223V39.4401C24.5292 39.2186 24.5007 39.0452 24.4625 38.9295C24.4248 38.8139 24.3483 38.7271 24.2535 38.6791C24.1582 38.6311 24.0155 38.6022 23.8352 38.5924C23.7969 38.4767 23.7781 38.294 23.7781 38.0627C24.3295 38.0818 24.9379 38.0818 25.5937 38.0818C27.0104 38.0818 27.9516 38.0818 28.4368 38.0627C28.5224 38.7948 28.5886 39.2765 28.6554 39.517C28.5224 39.6038 28.3512 39.6425 28.1326 39.6425C28.104 39.3146 27.971 39.055 27.733 38.8717C27.5047 38.6791 27.0869 38.5924 26.4876 38.5924H25.5937V40.7407H26.1645C26.5732 40.7407 26.8586 40.7019 27.0201 40.6054C27.1725 40.5094 27.2576 40.3359 27.2673 40.0855C27.4385 40.0375 27.6097 40.0086 27.7998 40.0086C27.7804 40.2011 27.7713 40.5284 27.7713 40.9911C27.7713 41.4919 27.7804 41.829 27.7998 42.0117C27.5903 42.0117 27.4191 41.9834 27.2861 41.9348C27.2673 41.6844 27.1725 41.5017 27.0201 41.4149C26.8586 41.3184 26.5732 41.2704 26.1645 41.2704H25.5937V42.5033C25.5937 42.7537 25.6131 42.937 25.6605 43.0717C25.7176 43.1966 25.8032 43.2932 25.9265 43.3412C26.0601 43.3892 26.2501 43.4181 26.5064 43.4181H26.5732C27.0201 43.4181 27.3626 43.3799 27.6097 43.3024C27.8472 43.2255 28.0281 43.1006 28.1514 42.9561C28.2753 42.8017 28.3894 42.5802 28.4939 42.2818ZM5.49546 49.8526C5.46692 50.2765 5.49546 50.7773 5.57138 51.3746C5.40985 51.4423 5.21978 51.4804 5.0103 51.4804C4.99146 51.1046 4.89614 50.8252 4.71578 50.6523C4.52571 50.469 4.25002 50.3823 3.86018 50.3823H3.35618V54.399C3.35618 54.6401 3.37502 54.8229 3.41326 54.9287C3.46063 55.0444 3.53655 55.1213 3.6507 55.1698C3.75573 55.2178 3.92639 55.2468 4.1644 55.2664C4.20208 55.3624 4.22148 55.5261 4.22148 55.7574C3.6507 55.7377 3.18495 55.7377 2.82364 55.7377C2.37672 55.7377 1.89213 55.7377 1.38813 55.7574C1.38813 55.5261 1.40697 55.3624 1.44521 55.2664C1.67352 55.2468 1.85389 55.2178 1.96805 55.1698C2.09191 55.1213 2.17695 55.0444 2.21519 54.9287C2.26257 54.8038 2.29111 54.6303 2.29111 54.399V50.3823H1.81622C1.50229 50.3823 1.26428 50.421 1.10275 50.4979C0.941215 50.5847 0.817927 50.7003 0.741442 50.8449C0.665529 50.9987 0.598747 51.211 0.541669 51.4804C0.294522 51.4804 0.114156 51.4423 0 51.3746C0.114156 50.8449 0.171234 50.3343 0.171234 49.8526C0.570208 49.8717 1.45492 49.8717 2.82364 49.8717C4.21178 49.8717 5.09592 49.8717 5.49546 49.8526ZM10.1062 55.8441C9.44069 55.8441 8.85164 55.7186 8.34765 55.4682C7.83394 55.2178 7.44467 54.8616 7.15928 54.4088C6.8836 53.956 6.7409 53.4263 6.7409 52.829C6.7409 52.2316 6.8836 51.7117 7.15928 51.2491C7.44467 50.7871 7.84365 50.4303 8.35735 50.1706C8.87048 49.9202 9.46009 49.7948 10.1256 49.7948C10.7912 49.7948 11.3802 49.9202 11.8842 50.1706C12.3979 50.421 12.7872 50.7773 13.0726 51.23C13.3482 51.6828 13.4909 52.2125 13.4909 52.8001C13.4909 53.4067 13.3482 53.937 13.0726 54.3892C12.7872 54.8518 12.3882 55.208 11.8842 55.459C11.3711 55.7088 10.7717 55.8441 10.1062 55.8441ZM10.2677 55.3046C10.8956 55.3046 11.3899 55.0929 11.7512 54.6691C12.1222 54.2452 12.3026 53.6866 12.3026 52.9834C12.3026 52.4728 12.1981 52.02 11.9983 51.6152C11.7986 51.211 11.5229 50.9027 11.1616 50.6714C10.8003 50.4499 10.4013 50.3343 9.95439 50.3343C9.3271 50.3343 8.83224 50.5465 8.47093 50.9698C8.10963 51.3937 7.92926 51.9621 7.92926 52.6555C7.92926 53.1759 8.03372 53.638 8.23349 54.0428C8.43326 54.4476 8.70895 54.7552 9.06055 54.9767C9.42185 55.1889 9.8214 55.3046 10.2677 55.3046ZM18.0258 55.8152C17.3985 55.8152 16.8945 55.7377 16.5332 55.5839C16.1628 55.4393 15.8962 55.208 15.7444 54.9004C15.5828 54.5916 15.5064 54.1868 15.5064 53.6958V51.259C15.5064 51.0184 15.4875 50.8351 15.459 50.7194C15.4304 50.6038 15.3734 50.5269 15.2877 50.4789C15.2118 50.4401 15.0788 50.402 14.9076 50.3823C14.8602 50.2574 14.8505 50.0839 14.8505 49.8526C15.2215 49.8717 15.6205 49.8717 16.0486 49.8717C16.4761 49.8717 16.9042 49.8717 17.3226 49.8526C17.3226 50.055 17.3037 50.2285 17.2752 50.3823C17.0566 50.402 16.9042 50.4401 16.8089 50.4789C16.7233 50.5269 16.657 50.6038 16.6188 50.7102C16.5903 50.8252 16.5714 51.0086 16.5714 51.259V53.5518C16.5714 54.1104 16.6947 54.5245 16.9424 54.8038C17.1987 55.0929 17.6268 55.2277 18.245 55.2277C18.435 55.2277 18.6154 55.1988 18.8152 55.1409C19.0052 55.0831 19.1668 54.9964 19.3095 54.8807C19.4522 54.7454 19.5663 54.5725 19.6234 54.3412C19.6896 54.1203 19.7278 53.7918 19.7278 53.3593V51.5192C19.7278 51.2202 19.709 50.9987 19.6708 50.8449C19.6422 50.6905 19.576 50.5847 19.471 50.517C19.3762 50.45 19.2238 50.402 19.0241 50.3823C18.9864 50.1897 18.9767 50.0162 18.9767 49.8526C19.2809 49.8717 19.6046 49.8717 19.9464 49.8717C20.2507 49.8717 20.5737 49.8717 20.9259 49.8526C20.9259 50.0452 20.9071 50.2285 20.8688 50.3823C20.6308 50.402 20.4693 50.4881 20.3934 50.6327C20.3078 50.7871 20.2701 51.0664 20.2701 51.4712V53.3685C20.2701 53.889 20.2318 54.303 20.1462 54.6014C20.0703 54.9004 19.9088 55.1502 19.6805 55.3335C19.2906 55.6614 18.7393 55.8152 18.0258 55.8152ZM27.2576 54.3603C27.467 54.6789 27.6759 54.9004 27.8945 55.0253C28.1137 55.1502 28.3888 55.2277 28.7125 55.2468C28.7125 55.4688 28.6936 55.6325 28.6651 55.7377C28.0087 55.7377 27.4573 55.7574 27.0013 55.8152C26.9442 55.7186 26.8392 55.555 26.6874 55.3237L26.1645 54.4667C25.8791 53.985 25.5087 53.59 25.0332 53.2818L24.6622 53.3009L24.3295 53.2818V54.351C24.3295 54.6112 24.3483 54.8038 24.3865 54.9287C24.4248 55.0542 24.491 55.1404 24.5766 55.1791C24.6622 55.2277 24.8049 55.2566 24.9853 55.2664C25.0235 55.3624 25.0332 55.5261 25.0332 55.7574C24.7478 55.7377 24.3295 55.7377 23.7781 55.7377C23.3694 55.7377 22.9413 55.7377 22.5138 55.7574C22.5138 55.5353 22.5326 55.3717 22.5703 55.2664C22.761 55.2468 22.9031 55.2178 23.0081 55.1698C23.1029 55.1213 23.1696 55.0444 23.2079 54.9287C23.2456 54.8038 23.2644 54.6303 23.2644 54.399V51.2202C23.2644 50.8831 23.217 50.6616 23.1223 50.5558C23.0366 50.4499 22.846 50.3823 22.5703 50.373C22.5326 50.2476 22.5138 50.0839 22.5138 49.8526C22.8083 49.8717 23.2267 49.8717 23.7878 49.8717L24.6149 49.8624C25.0235 49.8526 25.3278 49.8433 25.5275 49.8433C26.269 49.8433 26.83 49.9873 27.2102 50.2765C27.5903 50.5656 27.7713 50.9317 27.7713 51.3844C27.7713 51.8367 27.6286 52.2125 27.3432 52.5017C27.0584 52.8001 26.6685 52.9926 26.1548 53.099C26.3449 53.2141 26.5064 53.3494 26.64 53.5033C26.7633 53.6576 26.9727 53.937 27.2576 54.3603ZM24.7667 52.7133C25.3278 52.7133 25.7747 52.6075 26.136 52.4149C26.4876 52.2125 26.6685 51.9234 26.6685 51.5383C26.6685 50.7385 26.1263 50.3441 25.0424 50.3441C24.7952 50.3441 24.5578 50.373 24.3295 50.4112V52.6752C24.491 52.7041 24.6337 52.7133 24.7667 52.7133ZM32.5247 55.8152C32.1063 55.8152 31.7165 55.7765 31.3746 55.6897C31.0321 55.603 30.6611 55.4688 30.2621 55.3046C30.3478 54.7749 30.3763 54.3221 30.3569 53.937C30.519 53.889 30.7279 53.8595 30.975 53.8595C30.9945 54.3412 31.1463 54.698 31.4317 54.9096C31.7262 55.1311 32.1257 55.2468 32.6583 55.2468C33.1046 55.2468 33.4568 55.1698 33.7131 55.0351C33.9699 54.8905 34.1029 54.7078 34.1029 54.4667C34.1029 54.303 34.0367 54.1579 33.9128 54.0428C33.7799 53.9179 33.6275 53.8213 33.4471 53.7346C33.2667 53.6576 33.0002 53.5518 32.6583 53.4263C32.1731 53.2627 31.793 53.1083 31.5076 52.9637C31.2131 52.8192 30.9659 52.6173 30.7564 52.3669C30.5378 52.1165 30.4334 51.7887 30.4334 51.4134C30.4334 50.8831 30.6326 50.4881 31.0224 50.2186C31.4123 49.9393 31.9448 49.8046 32.62 49.8046C32.9813 49.8046 33.3426 49.8433 33.7039 49.9104C34.0555 49.9781 34.3409 50.0741 34.5401 50.1799C34.531 50.2666 34.531 50.4014 34.531 50.5749C34.531 50.9317 34.5498 51.211 34.5972 51.4134C34.4357 51.5001 34.2268 51.5383 33.9608 51.5383C33.8558 51.0953 33.6754 50.7871 33.4374 50.6038C33.1902 50.4309 32.8957 50.3441 32.5441 50.3441C32.2016 50.3441 31.926 50.4014 31.7171 50.517C31.4979 50.6327 31.3934 50.8062 31.3934 51.0375C31.3934 51.2977 31.5173 51.5001 31.7644 51.6539C32.0116 51.8176 32.3917 51.9812 32.9243 52.1744C33.3712 52.3282 33.7325 52.4728 34.0173 52.6173C34.3027 52.7613 34.5498 52.9446 34.7496 53.1852C34.9494 53.4263 35.0441 53.7247 35.0441 54.0815C35.0441 54.6014 34.8449 55.0154 34.4265 55.3335C34.0082 55.6614 33.3712 55.8152 32.5247 55.8152Z" fill="#24000D"/>
<path fill-rule="evenodd" clip-rule="evenodd" d="M56.7574 57.1425C58.9909 63.3578 61.9566 69.2169 65.5485 74.6128C46.9662 59.8205 35.0312 36.8461 35.0312 11.0468C35.0312 10.7432 35.0461 10.0661 35.1859 9.50168C35.122 10.0094 35.1448 10.5004 35.2556 11.0017C36.1654 15.0867 42.8766 18.4679 51.9109 19.6927C51.6518 22.3834 51.5154 25.1094 51.5154 27.8683C51.5154 38.1732 53.3721 48.0369 56.7574 57.1425Z" fill="url(#paint0_linear_1267_516)"/>
<path fill-rule="evenodd" clip-rule="evenodd" d="M74.2532 18.2446L74.2389 18.0532C70.135 19.3873 64.9769 20.1819 59.3758 20.1819C56.7708 20.1819 54.2622 20.0095 51.9112 19.6915C51.652 22.3816 51.5156 25.1076 51.5156 27.866C51.5156 37.7395 53.2205 47.2082 56.3416 55.9934C65.5368 45.6127 71.913 32.6189 74.2532 18.2446Z" fill="#8F0E28"/>
<path fill-rule="evenodd" clip-rule="evenodd" d="M56.2453 0C54.0483 6.25291 52.5712 12.8516 51.9119 19.6932C42.1773 18.3776 35.1367 14.5581 35.1367 10.0499C35.1367 4.89569 44.3365 0.641887 56.2453 0Z" fill="#989898"/>
<path fill-rule="evenodd" clip-rule="evenodd" d="M56.5508 55.7571C65.6793 45.3666 71.9949 32.3855 74.2895 18.0373C75.1171 12.8611 75.407 7.59704 75.161 2.35959C80.3352 4.21817 83.6126 6.9725 83.6126 10.0489L83.6445 11.2419C83.6445 30.709 72.6182 47.5652 56.5508 55.7571Z" fill="#989898"/>
<defs>
<linearGradient id="paint0_linear_1267_516" x1="33.6021" y1="23.6073" x2="58.8596" y2="77.7341" gradientUnits="userSpaceOnUse">
<stop stop-color="#FAE29E"/>
<stop offset="0.333333" stop-color="#D6B677"/>
<stop offset="0.666667" stop-color="#BD8D1C"/>
<stop offset="1" stop-color="#E2B85C"/>
</linearGradient>
</defs>
</svg>
